<?xml version="1.0" standalone="no"?>
<!DOCTYPE svg PUBLIC "-//W3C//DTD SVG 20010904//EN"
 "http://www.w3.org/TR/2001/REC-SVG-20010904/DTD/svg10.dtd">
<svg version="1.0" xmlns="http://www.w3.org/2000/svg"
 width="1024.000000pt" height="1536.000000pt" viewBox="0 0 1024.000000 1536.000000"
 preserveAspectRatio="xMidYMid meet">

<g transform="translate(0.000000,1536.000000) scale(0.100000,-0.100000)"
fill="#000000" stroke="none">
<path d="M4057 11744 c-1 -1 -162 -4 -357 -8 -195 -4 -407 -11 -470 -16 -63
-5 -162 -12 -220 -15 -58 -3 -130 -8 -160 -10 -30 -2 -129 -7 -220 -10 -91 -3
-190 -7 -220 -10 -30 -2 -137 -5 -237 -7 -101 -1 -183 -5 -183 -8 0 -3 -27 -5
-60 -5 -33 0 -60 -4 -60 -8 0 -5 -4 -6 -9 -2 -5 3 -12 1 -16 -4 -3 -6 -18 -10
-33 -9 -38 1 -120 -9 -132 -17 -6 -4 -8 -11 -5 -16 4 -5 1 -9 -5 -9 -7 0 -9 8
-5 20 7 21 2 23 -30 11 -11 -5 -27 -5 -37 0 -13 7 -15 5 -11 -11 3 -11 12 -20
20 -20 8 0 11 -4 8 -10 -10 -16 -21 -12 -55 20 -18 17 -40 30 -49 29 -11 0 -9
-3 7 -9 12 -5 22 -14 22 -20 0 -6 -5 -8 -10 -5 -6 4 -18 1 -26 -6 -12 -10 -15
-10 -12 1 2 7 -3 15 -9 17 -8 3 -13 -4 -13 -16 0 -15 6 -21 21 -21 12 0 17 -4
13 -11 -3 -6 -14 -9 -23 -6 -22 6 -84 -84 -83 -121 3 -71 0 -537 -4 -702 -3
-102 -7 -396 -9 -655 -3 -258 -8 -663 -11 -900 -9 -715 -10 -2645 -1 -2645 5
0 5 -5 1 -12 -5 -7 -7 -28 -6 -48 1 -30 1 -294 0 -355 -2 -88 13 -1600 17
-1670 2 -49 7 -160 10 -245 5 -146 18 -220 38 -220 4 0 6 -4 3 -9 -11 -17 49
-67 94 -80 25 -7 54 -18 65 -23 13 -7 20 -7 23 0 2 6 58 8 162 5 91 -2 161 0
164 5 3 5 23 6 43 3 21 -4 102 -7 180 -6 79 0 143 -3 143 -7 0 -3 32 -5 70 -5
39 1 70 5 70 10 0 4 8 3 18 -2 10 -5 167 -7 392 -4 453 6 445 6 650 -1 204 -8
575 -14 1083 -19 213 -2 390 -7 394 -10 9 -10 25 -9 20 0 -5 8 35 11 173 11
566 -1 833 1 920 6 128 9 646 6 825 -3 6 -1 42 1 80 4 39 3 84 5 100 4 39 -3
73 -3 110 0 17 1 86 2 155 2 266 0 788 13 1025 24 105 5 159 4 179 -4 23 -9
31 -9 37 1 6 9 16 9 45 0 23 -7 43 -8 54 -2 11 6 21 5 30 -3 10 -10 11 -7 6
13 -6 21 -5 22 4 8 17 -27 27 -22 56 27 17 29 24 55 21 71 -3 18 -1 24 9 20
18 -7 18 -1 -2 29 -15 23 -15 25 0 25 18 0 21 15 5 26 -8 4 -7 9 2 14 9 6 13
43 15 122 1 62 3 145 4 185 1 39 0 75 -2 80 -7 13 -2 355 6 380 4 12 3 24 -2
27 -8 5 -7 920 2 2716 2 364 -1 590 -7 598 -5 6 -6 12 -1 12 5 0 8 73 7 162
-1 90 -5 444 -8 788 -8 745 -8 741 -19 759 -6 10 -6 12 2 7 16 -9 15 7 0 22
-7 7 -8 12 -2 12 7 0 9 151 8 458 -2 251 -4 464 -4 472 -1 8 -1 60 -1 115 0
181 -4 275 -12 275 -5 0 -6 4 -2 9 9 15 13 71 5 66 -17 -10 -22 58 -6 83 4 7
1 14 -7 18 -10 3 -13 19 -12 51 3 54 -11 91 -34 92 -46 1 -84 15 -88 32 -4 15
-11 18 -32 13 -31 -7 -45 -7 -88 0 -18 3 -35 1 -38 -4 -12 -20 -22 -9 -18 18
4 23 3 24 -7 10 -10 -16 -14 -17 -39 -3 -22 11 -65 14 -179 14 -83 -1 -155 2
-161 6 -6 3 -11 -2 -11 -12 0 -14 -2 -15 -9 -4 -8 12 -34 13 -153 6 -78 -5
-156 -9 -173 -9 -16 0 -33 -5 -37 -10 -4 -6 -13 -4 -22 3 -12 11 -16 11 -16 1
0 -9 -4 -9 -12 -3 -16 13 -80 15 -73 2 8 -11 -8 -12 -20 0 -12 11 -231 21
-242 11 -4 -4 -43 -4 -85 1 -82 8 -154 10 -413 10 -88 0 -169 0 -180 1 -11 1
-285 2 -610 3 -324 0 -621 4 -660 7 -240 22 -1187 40 -1214 23 -6 -3 -11 -3
-11 2 0 6 -116 13 -123 7z m-542 -44 c3 -5 1 -10 -4 -10 -6 0 -11 5 -11 10 0
6 2 10 4 10 3 0 8 -4 11 -10z m4515 -20 c0 -5 -4 -10 -10 -10 -5 0 -10 5 -10
10 0 6 5 10 10 10 6 0 10 -4 10 -10z m-3980 -4 c0 -3 -4 -8 -10 -11 -5 -3 -10
-1 -10 4 0 6 5 11 10 11 6 0 10 -2 10 -4z m188 -3 c-10 -2 -26 -2 -35 0 -10 3
-2 5 17 5 19 0 27 -2 18 -5z m242 -3 c13 -8 13 -10 -2 -10 -9 0 -20 5 -23 10
-8 13 5 13 25 0z m580 0 c0 -5 -11 -10 -25 -10 -14 0 -25 5 -25 10 0 6 11 10
25 10 14 0 25 -4 25 -10z m-1550 -19 c0 -5 -11 -9 -25 -10 -63 -3 -102 -3
-127 2 -16 3 -28 2 -28 -2 0 -4 -7 -8 -15 -8 -8 0 -15 6 -15 13 0 10 26 13
105 13 58 0 105 -4 105 -8z m4747 3 c-3 -3 -12 -4 -19 -1 -8 3 -5 6 6 6 11 1
17 -2 13 -5z m40 0 c-3 -3 -12 -4 -19 -1 -8 3 -5 6 6 6 11 1 17 -2 13 -5z
m-5010 -19 c-2 -6 -33 -9 -70 -8 -38 2 -67 -1 -67 -7 0 -5 -6 -7 -14 -4 -8 3
-17 0 -21 -6 -5 -8 -10 -8 -14 -2 -4 6 -33 6 -76 1 -38 -4 -119 -10 -180 -13
-60 -3 -137 -8 -170 -11 -38 -4 -55 -3 -45 3 18 11 228 31 385 36 61 3 120 8
132 13 31 12 144 10 140 -2z m2438 -15 c3 -5 1 -10 -4 -10 -6 0 -11 5 -11 10
0 6 2 10 4 10 3 0 8 -4 11 -10z m-1345 -10 c0 -5 -5 -10 -11 -10 -5 0 -7 5 -4
10 3 6 8 10 11 10 2 0 4 -4 4 -10z m-2165 -29 c3 -6 -4 -9 -15 -8 -11 1 -20 5
-20 9 0 11 28 10 35 -1z m-650 -21 c3 -5 1 -10 -4 -10 -6 0 -11 5 -11 10 0 6
2 10 4 10 3 0 8 -4 11 -10z m625 -20 c0 -5 -4 -10 -10 -10 -5 0 -10 5 -10 10
0 6 5 10 10 10 6 0 10 -4 10 -10z m1750 0 c0 -5 -13 -10 -30 -10 -16 0 -30 5
-30 10 0 6 14 10 30 10 17 0 30 -4 30 -10z m1124 -5 c6 -17 4 -18 -18 -9 -20
8 -21 24 -2 24 8 0 16 -7 20 -15z m3706 5 c0 -5 -4 -10 -10 -10 -5 0 -10 5
-10 10 0 6 5 10 10 10 6 0 10 -4 10 -10z m-737 -14 c3 -8 -12 -10 -49 -8 -30
2 -54 7 -54 10 0 12 98 10 103 -2z m-6109 -4 c2 -4 -3 -8 -12 -8 -9 0 -36 -4
-59 -8 -28 -5 -43 -4 -43 2 0 18 103 31 114 14z m2401 -2 c3 -5 1 -10 -4 -10
-6 0 -11 5 -11 10 0 6 2 10 4 10 3 0 8 -4 11 -10z m3975 -4 c0 -3 -4 -8 -10
-11 -5 -3 -10 -1 -10 4 0 6 5 11 10 11 6 0 10 -2 10 -4z m-2220 -16 c0 -5 -4
-10 -10 -10 -5 0 -10 5 -10 10 0 6 5 10 10 10 6 0 10 -4 10 -10z m543 3 c-7
-2 -19 -2 -25 0 -7 3 -2 5 12 5 14 0 19 -2 13 -5z m1890 -2 c17 0 27 -7 27
-16 0 -8 -3 -15 -7 -15 -24 1 -196 30 -200 34 -4 4 67 3 180 -3z m-4924 -16
c2 -3 -22 -5 -55 -4 -42 0 -53 3 -39 9 19 8 84 5 94 -5z m1851 5 c0 -5 -14 -8
-30 -6 -45 5 -49 16 -7 16 21 0 37 -4 37 -10z m3337 -2 c-2 -7 0 -22 6 -33 9
-18 8 -19 -7 -4 -10 9 -14 22 -10 32 7 19 18 24 11 5z m-5310 -4 c-3 -3 -12
-4 -19 -1 -8 3 -5 6 6 6 11 1 17 -2 13 -5z m2743 -4 c0 -5 -4 -10 -10 -10 -5
0 -10 5 -10 10 0 6 5 10 10 10 6 0 10 -4 10 -10z m2035 -41 c11 -16 1 -19 -13
-3 -7 8 -8 14 -3 14 5 0 13 -5 16 -11z m-3935 -10 c498 5 617 4 990 -4 184 -3
355 -6 380 -5 25 0 296 2 602 3 364 1 558 5 558 12 0 6 4 5 8 -2 5 -8 96 -13
317 -16 171 -3 321 -10 335 -15 15 -6 199 -10 438 -10 267 -1 432 -5 467 -12
30 -6 59 -9 65 -5 5 3 10 2 10 -3 0 -5 11 -7 24 -5 22 4 26 0 35 -33 6 -22 13
-86 17 -144 9 -152 13 -2797 4 -2848 -4 -25 -4 -45 2 -48 6 -4 8 -36 4 -78 -6
-75 -9 -158 -6 -166 1 -3 1 -27 1 -55 -1 -99 -2 -614 -1 -785 0 -96 -1 -214
-3 -262 -2 -49 -1 -88 2 -88 6 0 6 -104 -3 -585 -3 -154 -5 -359 -5 -455 0
-626 -7 -1485 -11 -1485 -1 0 -3 -34 -4 -75 l-3 -75 -64 -7 c-35 -4 -107 -6
-159 -5 -52 1 -100 -2 -107 -6 -6 -4 -14 -3 -18 2 -3 6 -11 8 -18 6 -40 -13
-172 -18 -582 -20 -253 -2 -480 -4 -505 -5 -165 -6 -650 2 -656 11 -4 6 -17 8
-33 3 -26 -8 -711 -16 -1226 -14 -300 0 -333 0 -590 -1 -162 -1 -539 0 -590 1
-11 0 -33 0 -50 -1 -92 -3 -401 0 -605 5 -129 3 -383 6 -565 5 -362 -1 -606 1
-645 5 -14 2 -104 4 -201 4 -224 2 -214 -5 -223 152 -14 250 -23 811 -28 1780
-2 311 -7 570 -11 577 -4 6 -3 14 3 18 6 4 7 11 4 17 -3 5 -6 27 -6 49 1 24
-4 39 -11 39 -9 0 -9 2 0 8 13 8 24 320 11 328 -5 3 -6 10 -3 15 4 5 5 84 5
177 -1 92 -2 174 -2 182 4 262 12 1645 12 2120 0 499 3 646 13 652 8 5 8 8 1
8 -8 0 -10 60 -8 213 7 405 13 642 19 687 3 25 7 59 9 75 3 17 5 35 5 42 1 14
48 22 176 28 55 3 109 6 120 9 50 9 122 20 145 21 14 1 63 4 110 8 47 4 167 9
266 12 100 2 220 7 265 11 48 3 99 2 120 -4 24 -6 42 -6 54 0 11 7 182 11 444
13 407 2 477 6 511 26 8 5 22 5 30 1 8 -3 170 -5 360 -3z m-2430 -58 c0 -5 -9
-11 -20 -14 -20 -5 -26 3 -13 16 9 10 33 8 33 -2z m-360 -46 c0 -5 -5 -3 -10
5 -5 8 -10 20 -10 25 0 6 5 3 10 -5 5 -8 10 -19 10 -25z m7260 -5 c0 -19 -11
-26 -23 -14 -8 8 3 34 14 34 5 0 9 -9 9 -20z m-7200 -100 c0 -5 -2 -10 -4 -10
-3 0 -8 5 -11 10 -3 6 -1 10 4 10 6 0 11 -4 11 -10z m7200 -5 c0 -9 -6 -12
-15 -9 -8 4 -15 10 -15 15 0 5 7 9 15 9 8 0 15 -7 15 -15z m-7224 -32 c-5 -17
-3 -29 6 -34 10 -7 10 -9 1 -9 -8 0 -13 -15 -13 -42 -1 -24 -5 -62 -9 -85 -10
-51 -3 -96 13 -86 6 4 4 -2 -4 -12 -8 -10 -10 -16 -3 -12 16 10 21 -11 12 -57
-4 -22 -3 -51 3 -65 8 -21 6 -29 -11 -42 -26 -21 -26 -29 -3 -29 13 0 14 -2 3
-9 -7 -5 -11 -13 -7 -19 8 -13 -3 -42 -15 -42 -10 0 -11 277 -1 418 4 58 3 97
-3 104 -7 8 -6 9 2 4 8 -4 15 2 19 19 3 14 8 25 11 25 3 0 2 -12 -1 -27z
m7234 -73 c0 -5 -2 -10 -4 -10 -3 0 -8 5 -11 10 -3 6 -1 10 4 10 6 0 11 -4 11
-10z m-7250 -484 c0 -3 -4 -8 -10 -11 -5 -3 -10 -1 -10 4 0 6 5 11 10 11 6 0
10 -2 10 -4z m7265 -46 c3 -5 1 -10 -4 -10 -6 0 -11 5 -11 10 0 6 2 10 4 10 3
0 8 -4 11 -10z m-49 -157 c-12 -12 -29 15 -21 34 7 17 8 16 18 -5 5 -12 7 -25
3 -29z m-2 -162 c4 -5 2 -11 -3 -13 -5 -1 -11 -36 -13 -75 -2 -40 -6 -73 -10
-73 -9 0 -11 131 -2 154 7 18 20 21 28 7z m-7184 -21 c0 -5 -2 -10 -4 -10 -3
0 -8 5 -11 10 -3 6 -1 10 4 10 6 0 11 -4 11 -10z m7187 -32 c-3 -7 -5 -2 -5
12 0 14 2 19 5 13 2 -7 2 -19 0 -25z m-7190 -30 c-3 -7 -5 -2 -5 12 0 14 2 19
5 13 2 -7 2 -19 0 -25z m7128 -398 c3 -5 -1 -10 -9 -10 -9 0 -16 5 -16 10 0 6
4 10 9 10 6 0 13 -4 16 -10z m-7095 -302 c0 -16 -3 -19 -11 -11 -6 6 -8 16 -5
22 11 17 16 13 16 -11z m7100 -118 c0 -11 -4 -20 -9 -20 -5 0 -7 9 -4 20 3 11
7 20 9 20 2 0 4 -9 4 -20z m90 -655 c0 -8 -4 -15 -10 -15 -5 0 -10 7 -10 15 0
8 5 15 10 15 6 0 10 -7 10 -15z m-7323 -167 c-3 -7 -5 -2 -5 12 0 14 2 19 5
13 2 -7 2 -19 0 -25z m-10 -140 c-3 -7 -5 -2 -5 12 0 14 2 19 5 13 2 -7 2 -19
0 -25z m7276 -279 c-6 -6 -7 3 -4 23 4 28 6 29 9 9 2 -13 0 -27 -5 -32z m32
-108 c3 -5 1 -12 -4 -15 -5 -3 -11 1 -15 9 -6 16 9 21 19 6z m-5 -77 c0 -8 -4
-12 -10 -9 -5 3 -10 10 -10 16 0 5 5 9 10 9 6 0 10 -7 10 -16z m-90 -189 c0
-8 -4 -15 -10 -15 -5 0 -10 7 -10 15 0 8 5 15 10 15 6 0 10 -7 10 -15z m-7221
-236 c-22 -14 -33 -10 -19 6 7 8 17 12 22 9 6 -4 5 -10 -3 -15z m7218 -161
c-3 -8 -6 -5 -6 6 -1 11 2 17 5 13 3 -3 4 -12 1 -19z m-6 -175 c-2 -81 -11
-80 -11 2 0 38 3 65 7 62 3 -4 5 -32 4 -64z m-7184 -448 c0 -8 -4 -15 -9 -15
-10 0 -11 14 -1 23 9 10 10 9 10 -8z m-2 -34 c3 -5 1 -12 -5 -16 -5 -3 -10 1
-10 9 0 18 6 21 15 7z m4 -131 c-2 -27 -6 -50 -10 -50 -5 0 -7 21 -5 48 4 52
4 52 11 52 4 0 5 -22 4 -50z m121 31 c0 -11 -4 -23 -10 -26 -6 -4 -9 5 -8 19
3 30 18 35 18 7z m-120 -107 c0 -8 -5 -12 -10 -9 -6 4 -8 11 -5 16 9 14 15 11
15 -7z m120 -120 c0 -41 -4 -73 -8 -70 -4 2 -7 31 -6 63 2 75 3 83 9 83 3 0 5
-34 5 -76z m7160 -24 c0 -5 -5 -10 -11 -10 -5 0 -7 5 -4 10 3 6 8 10 11 10 2
0 4 -4 4 -10z m-7165 -410 c3 -5 1 -10 -4 -10 -6 0 -11 5 -11 10 0 6 2 10 4
10 3 0 8 -4 11 -10z m7 -200 c3 -17 2 -33 -2 -35 -3 -2 -7 12 -8 31 -3 42 4
45 10 4z m-128 -5 c3 -8 1 -15 -4 -15 -6 0 -10 7 -10 15 0 8 2 15 4 15 2 0 6
-7 10 -15z m7206 -111 c0 -36 -4 -63 -9 -60 -5 3 -7 27 -5 53 2 27 3 54 4 61
0 6 2 12 5 12 3 0 5 -30 5 -66z m-7080 31 c0 -8 -2 -15 -4 -15 -2 0 -6 7 -10
15 -3 8 -1 15 4 15 6 0 10 -7 10 -15z m0 -35 c0 -5 -5 -10 -11 -10 -5 0 -7 5
-4 10 3 6 8 10 11 10 2 0 4 -4 4 -10z m-5 -349 c3 -5 1 -12 -5 -16 -5 -3 -10
1 -10 9 0 18 6 21 15 7z m7150 -190 c3 -5 1 -12 -5 -16 -5 -3 -10 1 -10 9 0
18 6 21 15 7z m5 -51 c0 -5 -7 -7 -15 -4 -8 4 -15 8 -15 10 0 2 7 4 15 4 8 0
15 -4 15 -10z m-7173 -47 c-3 -10 -5 -2 -5 17 0 19 2 27 5 18 2 -10 2 -26 0
-35z m0 -70 c-3 -10 -5 -2 -5 17 0 19 2 27 5 18 2 -10 2 -26 0 -35z m7165 -22
c-2 -23 -7 -41 -11 -41 -3 0 -5 20 -3 45 2 25 7 43 11 41 4 -3 5 -23 3 -45z
m-7162 -181 l-5 -145 -5 110 c-6 124 -1 231 9 200 3 -11 4 -85 1 -165z m7159
43 c-1 -27 -3 -39 -6 -28 -2 11 -8 32 -13 48 -7 21 -6 27 6 27 10 0 14 -12 13
-47z m-92 -445 c-3 -8 -6 -5 -6 6 -1 11 2 17 5 13 3 -3 4 -12 1 -19z m0 -80
c-3 -7 -5 -2 -5 12 0 14 2 19 5 13 2 -7 2 -19 0 -25z m-7157 -8 c0 -5 -4 -10
-10 -10 -5 0 -10 5 -10 10 0 6 5 10 10 10 6 0 10 -4 10 -10z m0 -46 c0 -14 -4
-23 -10 -19 -5 3 -10 15 -10 26 0 10 5 19 10 19 6 0 10 -12 10 -26z m6240 -95
c0 -5 -4 -9 -10 -9 -5 0 -10 7 -10 16 0 8 5 12 10 9 6 -3 10 -10 10 -16z
m-5567 -19 c19 -5 -32 -8 -123 -8 -97 1 -140 4 -115 8 52 10 197 9 238 0z
m417 0 c0 -5 -15 -9 -32 -9 l-33 1 30 8 c17 4 31 8 33 9 1 0 2 -3 2 -9z m893
-7 c-7 -2 -19 -2 -25 0 -7 3 -2 5 12 5 14 0 19 -2 13 -5z m251 -14 c-10 -11
-20 -16 -22 -10 -2 6 -16 11 -30 10 -24 0 -25 -1 -7 -8 13 -6 1 -8 -37 -8 -57
0 -77 10 -39 20 11 2 24 0 30 -6 7 -7 11 -7 11 -1 0 6 21 11 47 13 26 1 49 4
52 7 15 14 11 0 -5 -17z m3663 15 c-3 -3 -12 -4 -19 -1 -8 3 -5 6 6 6 11 1 17
-2 13 -5z m-3577 -16 c0 -11 -48 -10 -54 1 -3 5 8 8 24 7 17 0 30 -4 30 -8z
m4850 2 c0 -5 -5 -10 -11 -10 -5 0 -7 5 -4 10 3 6 8 10 11 10 2 0 4 -4 4 -10z
m-6025 -10 c-3 -5 -12 -10 -18 -10 -7 0 -6 4 3 10 19 12 23 12 15 0z m215 6
c0 -9 -40 -13 -46 -5 -3 5 6 9 20 9 14 0 26 -2 26 -4z m1068 -2 c34 -10 26
-24 -13 -24 -19 0 -35 5 -35 11 0 6 -9 8 -20 4 -11 -4 -20 -2 -20 4 0 12 51
14 88 5z m2152 -4 c0 -5 -2 -10 -4 -10 -3 0 -8 5 -11 10 -3 6 -1 10 4 10 6 0
11 -4 11 -10z m45 0 c3 -6 -4 -10 -17 -10 -18 0 -20 2 -8 10 19 12 18 12 25 0z
m-3357 -7 c-16 -2 -40 -2 -55 0 -16 2 -3 4 27 4 30 0 43 -2 28 -4z m5712 -13
c0 -5 -12 -11 -27 -11 -93 -5 -113 -4 -113 2 0 7 34 12 113 17 15 1 27 -2 27
-8z m-342 -9 c9 -5 -6 -8 -40 -8 -47 0 -49 1 -18 7 19 4 37 8 40 9 3 0 11 -3
18 -8z m-6498 -41 c0 -5 -5 -10 -11 -10 -5 0 -7 5 -4 10 3 6 8 10 11 10 2 0 4
-4 4 -10z m3170 0 c-18 -11 -80 -13 -80 -2 0 4 21 8 48 9 33 2 43 0 32 -7z
m-362 -7 c-10 -2 -28 -2 -40 0 -13 2 -5 4 17 4 22 1 32 -1 23 -4z m737 -3 c-3
-5 -12 -10 -20 -10 -8 0 -17 5 -20 10 -4 6 5 10 20 10 15 0 24 -4 20 -10z
m1245 -10 c0 -5 -2 -10 -4 -10 -3 0 -8 5 -11 10 -3 6 -1 10 4 10 6 0 11 -4 11
-10z m-1150 -60 c0 -5 -5 -10 -11 -10 -5 0 -7 5 -4 10 3 6 8 10 11 10 2 0 4
-4 4 -10z m220 0 c0 -5 -5 -10 -11 -10 -5 0 -7 5 -4 10 3 6 8 10 11 10 2 0 4
-4 4 -10z"/>
<path d="M3085 10849 c-33 -4 -123 -8 -200 -8 -201 0 -381 -7 -394 -15 -6 -4
-11 -3 -11 2 0 13 -92 3 -107 -12 -9 -8 -13 -320 -17 -1301 -8 -1727 -8 -1857
3 -1868 17 -17 237 -21 726 -13 277 5 352 9 363 20 11 10 13 56 12 217 -5 601
0 1425 9 1458 1 4 9 -5 54 -58 9 -12 17 -26 17 -31 0 -6 6 -10 14 -10 8 0 40
-35 72 -77 86 -114 86 -115 121 -149 17 -17 44 -50 60 -72 107 -153 205 -284
255 -342 32 -37 58 -71 58 -75 0 -4 6 -13 13 -19 8 -6 42 -47 78 -91 35 -44
66 -82 69 -85 3 -3 39 -50 80 -104 41 -55 88 -116 105 -137 16 -20 41 -51 55
-69 14 -18 32 -40 40 -49 8 -9 28 -37 45 -61 16 -25 35 -49 42 -53 7 -4 27
-29 45 -55 42 -62 80 -102 90 -96 4 3 8 -2 8 -10 0 -14 20 -16 138 -17 285 -2
294 -1 322 30 38 42 287 362 358 460 9 13 22 29 27 35 33 35 95 115 95 121 0
5 19 29 43 55 23 25 51 60 62 76 11 16 41 52 68 80 26 28 47 55 47 59 0 4 20
31 43 59 51 60 70 93 62 106 -3 6 2 10 13 10 11 0 28 12 38 26 10 14 42 54 69
88 28 34 61 78 75 96 14 19 34 44 46 56 11 12 38 44 60 70 21 27 42 51 45 54
9 8 122 159 139 185 14 22 69 38 89 26 4 -4 8 -35 8 -71 0 -36 1 -258 2 -495
1 -236 1 -577 1 -756 -1 -357 4 -405 49 -416 13 -3 148 -3 300 0 152 4 394 8
539 9 248 3 264 4 278 22 8 11 14 36 14 55 0 20 3 635 6 1366 3 732 6 1348 8
1370 1 22 -1 57 -5 77 -3 21 -4 40 -1 43 7 7 9 214 2 210 -3 -2 -5 10 -6 26
-1 16 -4 33 -8 37 -9 8 -1035 15 -1354 9 l-124 -2 -31 -37 c-38 -43 -97 -121
-151 -198 -21 -30 -42 -57 -46 -60 -4 -3 -26 -32 -49 -65 -23 -33 -64 -87 -91
-120 -27 -33 -49 -63 -50 -67 0 -7 -69 -98 -167 -220 -23 -29 -42 -57 -43 -61
0 -13 -52 -80 -184 -237 -11 -14 -57 -73 -100 -130 -43 -58 -84 -109 -90 -115
-7 -5 -53 -62 -104 -125 -51 -63 -117 -145 -147 -181 -30 -37 -55 -71 -55 -77
0 -6 -4 -12 -8 -14 -4 -1 -18 -18 -31 -35 -27 -39 -44 -42 -59 -8 -6 14 -16
25 -22 25 -5 0 -10 5 -10 11 0 5 -26 41 -57 78 -32 37 -80 96 -108 131 -27 34
-58 71 -67 81 -10 11 -18 22 -18 25 0 3 -31 45 -68 93 -38 47 -102 130 -142
184 -40 53 -76 97 -81 97 -5 0 -9 7 -9 15 0 7 -6 18 -13 22 -7 4 -23 25 -36
46 -13 21 -28 43 -35 50 -6 6 -41 48 -76 92 -36 44 -68 82 -72 83 -5 2 -8 10
-8 17 0 8 -6 18 -14 22 -8 4 -24 25 -36 46 -12 20 -26 37 -31 37 -5 0 -9 6 -9
14 0 8 -14 29 -30 48 -50 55 -131 158 -205 258 -38 52 -92 124 -120 159 -27
35 -49 67 -48 71 5 18 -97 42 -197 46 -223 9 -277 10 -335 3z m-436 -50 c-16
-10 -23 -4 -14 10 3 6 11 8 17 5 6 -4 5 -9 -3 -15z m891 -9 c0 -5 -2 -10 -4
-10 -3 0 -8 5 -11 10 -3 6 -1 10 4 10 6 0 11 -4 11 -10z m3977 -42 c-3 -7 -5
-2 -5 12 0 14 2 19 5 13 2 -7 2 -19 0 -25z m-547 8 c0 -3 -4 -8 -10 -11 -5 -3
-10 -1 -10 4 0 6 5 11 10 11 6 0 10 -2 10 -4z m687 -68 c-3 -8 -6 -5 -6 6 -1
11 2 17 5 13 3 -3 4 -12 1 -19z m-591 -282 c-15 -14 -26 -23 -26 -20 0 11 23
49 34 56 22 15 16 -11 -8 -36z m-3399 2 c-3 -8 -6 -5 -6 6 -1 11 2 17 5 13 3
-3 4 -12 1 -19z m2753 12 c0 -5 -2 -10 -4 -10 -3 0 -8 5 -11 10 -3 6 -1 10 4
10 6 0 11 -4 11 -10z m603 -78 c-3 -12 -9 -22 -14 -22 -12 0 -11 7 2 32 13 25
20 19 12 -10z m477 24 c0 -3 -4 -8 -10 -11 -5 -3 -10 -1 -10 4 0 6 5 11 10 11
6 0 10 -2 10 -4z m-4775 -26 c3 -5 1 -10 -4 -10 -6 0 -11 5 -11 10 0 6 2 10 4
10 3 0 8 -4 11 -10z m4010 -120 c3 -5 1 -10 -4 -10 -6 0 -11 5 -11 10 0 6 2
10 4 10 3 0 8 -4 11 -10z m495 -41 c0 -6 -4 -7 -10 -4 -5 3 -10 11 -10 16 0 6
5 7 10 4 6 -3 10 -11 10 -16z m-4635 -40 c11 -17 -1 -21 -15 -4 -8 9 -8 15 -2
15 6 0 14 -5 17 -11z m105 -19 c0 -5 -2 -10 -4 -10 -3 0 -8 5 -11 10 -3 6 -1
10 4 10 6 0 11 -4 11 -10z m450 -30 c0 -5 -4 -10 -9 -10 -6 0 -13 5 -16 10 -3
6 1 10 9 10 9 0 16 -4 16 -10z m627 -12 c-3 -8 -6 -5 -6 6 -1 11 2 17 5 13 3
-3 4 -12 1 -19z m3953 -8 c0 -5 -5 -10 -11 -10 -5 0 -7 5 -4 10 3 6 8 10 11
10 2 0 4 -4 4 -10z m-4650 -103 c0 -5 -4 -5 -10 -2 -5 3 -10 14 -10 23 0 15 2
15 10 2 5 -8 10 -19 10 -23z m-470 -7 c0 -11 -2 -20 -4 -20 -2 0 -6 9 -9 20
-3 11 -1 20 4 20 5 0 9 -9 9 -20z m-1 -73 c1 -5 -3 -5 -9 -2 -5 3 -10 16 -9
28 0 21 1 21 9 2 5 -11 9 -24 9 -28z m4838 6 c-3 -3 -11 -2 -17 2 -9 6 -9 10
1 16 14 8 27 -7 16 -18z m-4182 -13 c3 -5 1 -10 -4 -10 -6 0 -11 5 -11 10 0 6
2 10 4 10 3 0 8 -4 11 -10z m3292 -52 c-3 -8 -6 -5 -6 6 -1 11 2 17 5 13 3 -3
4 -12 1 -19z m-527 -12 c0 -3 -4 -8 -10 -11 -5 -3 -10 -1 -10 4 0 6 5 11 10
11 6 0 10 -2 10 -4z m440 -66 c0 -5 -5 -10 -11 -10 -5 0 -7 5 -4 10 3 6 8 10
11 10 2 0 4 -4 4 -10z m420 -70 c0 -5 -8 -10 -17 -10 -15 0 -16 2 -3 10 19 12
20 12 20 0z m-518 -72 c-7 -7 -12 -8 -12 -2 0 14 12 26 19 19 2 -3 -1 -11 -7
-17z m-2736 -48 c19 -19 29 -37 23 -38 -12 -5 -39 17 -39 30 0 5 -7 16 -15 24
-8 9 -15 23 -14 32 0 14 2 14 6 2 4 -8 21 -31 39 -50z m-99 -12 c-3 -8 -6 -5
-6 6 -1 11 2 17 5 13 3 -3 4 -12 1 -19z m1943 -2 c0 -23 -16 -27 -17 -5 -1 10
2 19 8 19 5 0 9 -6 9 -14z m1380 -36 c0 -5 -4 -10 -10 -10 -5 0 -10 5 -10 10
0 6 5 10 10 10 6 0 10 -4 10 -10z m-2746 -25 c9 -14 14 -25 11 -25 -10 0 -37
30 -28 30 4 0 1 5 -7 10 -8 5 -10 10 -4 10 7 0 19 -11 28 -25z m2076 -5 c0 -5
-5 -10 -11 -10 -5 0 -7 5 -4 10 3 6 8 10 11 10 2 0 4 -4 4 -10z m1320 -35 c0
-8 -4 -15 -10 -15 -5 0 -7 7 -4 15 4 8 8 15 10 15 2 0 4 -7 4 -15z m-3040 -85
c0 -5 -7 -10 -16 -10 -8 0 -12 5 -9 10 3 6 10 10 16 10 5 0 9 -4 9 -10z m1992
-22 c-7 -7 -12 -8 -12 -2 0 14 12 26 19 19 2 -3 -1 -11 -7 -17z m-3712 -2 c0
-3 -4 -8 -10 -11 -5 -3 -10 -1 -10 4 0 6 5 11 10 11 6 0 10 -2 10 -4z m1220
-72 c0 -8 -4 -12 -10 -9 -5 3 -10 13 -10 21 0 8 5 12 10 9 6 -3 10 -13 10 -21z
m190 22 c0 -2 -7 -7 -16 -10 -8 -3 -12 -2 -9 4 6 10 25 14 25 6z m1890 -80 c0
-3 -4 -8 -10 -11 -5 -3 -10 -1 -10 4 0 6 5 11 10 11 6 0 10 -2 10 -4z m-3492
-125 c-7 -11 -16 -18 -20 -15 -4 3 -2 11 5 19 18 21 29 18 15 -4z m2172 9 c0
-5 -2 -10 -4 -10 -3 0 -8 5 -11 10 -3 6 -1 10 4 10 6 0 11 -4 11 -10z m-1967
-40 c3 -11 1 -20 -4 -20 -5 0 -9 9 -9 20 0 11 2 20 4 20 2 0 6 -9 9 -20z
m3197 -5 c0 -8 -2 -15 -4 -15 -2 0 -6 7 -10 15 -3 8 -1 15 4 15 6 0 10 -7 10
-15z m-3397 -42 c-9 -23 -20 -4 -15 24 5 24 6 25 12 8 4 -11 5 -26 3 -32z
m1486 -73 c1 -12 -1 -12 -14 1 -10 10 -13 22 -9 34 7 18 8 18 15 -1 4 -10 8
-26 8 -34z m1618 -16 c-3 -3 -12 -4 -19 -1 -8 3 -5 6 6 6 11 1 17 -2 13 -5z
m-367 -8 c0 -3 -4 -8 -10 -11 -5 -3 -10 -1 -10 4 0 6 5 11 10 11 6 0 10 -2 10
-4z m-2743 -58 c-3 -7 -5 -2 -5 12 0 14 2 19 5 13 2 -7 2 -19 0 -25z m2030 -4
c-3 -3 -12 -4 -19 -1 -8 3 -5 6 6 6 11 1 17 -2 13 -5z m-597 -72 c0 -15 -2
-15 -10 -2 -13 20 -13 33 0 25 6 -3 10 -14 10 -23z m1140 -46 c0 -2 -7 -7 -16
-10 -8 -3 -12 -2 -9 4 6 10 25 14 25 6z m-1790 -66 c0 -5 -7 -7 -15 -4 -8 4
-12 10 -9 15 6 11 24 2 24 -11z m2231 -39 c-17 -16 -31 -34 -31 -40 0 -6 -4
-11 -10 -11 -5 0 -10 3 -10 7 0 11 73 83 78 78 3 -2 -9 -18 -27 -34z m-2831
19 c0 -5 -2 -10 -4 -10 -3 0 -8 5 -11 10 -3 6 -1 10 4 10 6 0 11 -4 11 -10z
m550 -90 c0 -5 -4 -10 -10 -10 -5 0 -10 5 -10 10 0 6 5 10 10 10 6 0 10 -4 10
-10z m-680 -165 c0 -8 -2 -15 -4 -15 -2 0 -6 7 -10 15 -3 8 -1 15 4 15 6 0 10
-7 10 -15z m800 6 c0 -6 -4 -13 -10 -16 -5 -3 -10 1 -10 9 0 9 5 16 10 16 6 0
10 -4 10 -9z m-595 -31 c3 -5 1 -10 -4 -10 -6 0 -11 5 -11 10 0 6 2 10 4 10 3
0 8 -4 11 -10z m-208 -72 c-3 -8 -6 -5 -6 6 -1 11 2 17 5 13 3 -3 4 -12 1 -19z
m4840 -20 c-3 -7 -5 -2 -5 12 0 14 2 19 5 13 2 -7 2 -19 0 -25z m-2057 -2 c0
-3 -4 -8 -10 -11 -5 -3 -10 -1 -10 4 0 6 5 11 10 11 6 0 10 -2 10 -4z m-316
-14 c3 -5 -4 -21 -15 -38 -10 -16 -19 -24 -19 -19 0 6 7 20 15 32 12 16 12 22
2 26 -9 4 -9 6 0 6 6 1 14 -3 17 -7z m-279 -143 c11 -17 -1 -21 -15 -4 -8 9
-8 15 -2 15 6 0 14 -5 17 -11z m35 -20 c0 -6 -4 -7 -10 -4 -5 3 -10 11 -10 16
0 6 5 7 10 4 6 -3 10 -11 10 -16z m2830 7 c0 -3 -4 -8 -10 -11 -5 -3 -10 -1
-10 4 0 6 5 11 10 11 6 0 10 -2 10 -4z m-5085 -86 c3 -5 1 -10 -4 -10 -6 0
-11 5 -11 10 0 6 2 10 4 10 3 0 8 -4 11 -10z m527 -25 c-2 -14 -9 -28 -15 -32
-7 -4 -8 0 -4 11 4 10 7 24 7 32 0 8 4 14 9 14 4 0 6 -11 3 -25z m-526 -27
c-2 -18 -7 -32 -12 -30 -5 2 -8 11 -6 20 9 50 24 58 18 10z m4414 1 c0 -5 -4
-9 -10 -9 -5 0 -10 7 -10 16 0 8 5 12 10 9 6 -3 10 -10 10 -16z m-4300 -35 c0
-8 -4 -12 -10 -9 -5 3 -10 10 -10 16 0 5 5 9 10 9 6 0 10 -7 10 -16z m-113
-20 c-3 -3 -12 -4 -19 -1 -8 3 -5 6 6 6 11 1 17 -2 13 -5z m263 -54 c0 -5 -4
-10 -10 -10 -5 0 -10 5 -10 10 0 6 5 10 10 10 6 0 10 -4 10 -10z m2396 -57
c-10 -10 -19 5 -10 18 6 11 8 11 12 0 2 -7 1 -15 -2 -18z m1924 -3 c0 -5 -2
-10 -4 -10 -3 0 -8 5 -11 10 -3 6 -1 10 4 10 6 0 11 -4 11 -10z m-425 -40 c3
-5 1 -10 -4 -10 -6 0 -11 5 -11 10 0 6 2 10 4 10 3 0 8 -4 11 -10z m-3680 -80
c3 -6 -1 -7 -9 -4 -18 7 -21 14 -7 14 6 0 13 -4 16 -10z"/>
<path d="M5935 7252 c-22 -2 -46 -9 -54 -15 -12 -9 -13 -9 -7 1 8 14 -6 16
-19 3 -6 -5 -28 -12 -50 -15 -133 -17 -227 -58 -294 -126 -106 -109 -192 -264
-228 -415 -22 -92 -41 -267 -43 -395 -18 -951 19 -1174 229 -1380 102 -100
128 -120 155 -120 12 0 26 -4 31 -9 30 -27 222 -63 305 -57 25 2 83 7 130 10
46 4 87 10 90 15 3 4 15 7 28 6 12 -1 22 2 22 7 0 4 9 8 20 8 38 0 126 50 200
114 55 47 115 147 145 243 25 78 29 103 29 224 1 189 14 179 -215 175 -204 -3
-208 -4 -209 -84 0 -55 -35 -180 -58 -212 -28 -37 -126 -73 -182 -66 -85 11
-123 31 -161 85 -67 96 -90 247 -89 581 1 74 0 144 0 155 -3 41 -2 75 5 280 3
116 6 217 6 225 1 25 21 124 30 145 5 11 13 31 19 45 14 34 77 120 83 114 3
-3 19 2 36 10 38 20 119 20 169 0 31 -12 45 -26 67 -69 25 -51 50 -178 38
-198 -8 -13 6 -75 22 -90 11 -12 47 -14 181 -11 266 5 260 1 250 176 -4 68
-11 141 -17 163 -6 22 -10 49 -10 60 0 22 -22 91 -46 145 -41 88 -134 182
-211 211 -15 6 -40 16 -57 24 -68 30 -221 47 -340 37z m-85 -237 c-7 -9 -15
-13 -18 -10 -3 2 1 11 8 20 7 9 15 13 18 10 3 -2 -1 -11 -8 -20z m600 -65 c0
-5 -4 -10 -10 -10 -5 0 -10 5 -10 10 0 6 5 10 10 10 6 0 10 -4 10 -10z m3 -40
c3 -11 1 -18 -4 -14 -5 3 -9 12 -9 20 0 20 7 17 13 -6z m-73 -120 c0 -5 -2
-10 -4 -10 -3 0 -8 5 -11 10 -3 6 -1 10 4 10 6 0 11 -4 11 -10z m-775 -328
c-3 -3 -11 0 -18 7 -9 10 -8 11 6 5 10 -3 15 -9 12 -12z m-175 -62 c0 -11 -6
-20 -14 -20 -9 0 -12 7 -9 20 3 11 9 20 14 20 5 0 9 -9 9 -20z m10 -290 c0 -5
-2 -10 -4 -10 -3 0 -8 5 -11 10 -3 6 -1 10 4 10 6 0 11 -4 11 -10z m0 -210 c0
-5 -5 -10 -11 -10 -5 0 -7 5 -4 10 3 6 8 10 11 10 2 0 4 -4 4 -10z m217 -62
c-3 -8 -6 -5 -6 6 -1 11 2 17 5 13 3 -3 4 -12 1 -19z m-112 -8 c3 -5 1 -10 -4
-10 -6 0 -11 5 -11 10 0 6 2 10 4 10 3 0 8 -4 11 -10z m-168 -282 c-3 -7 -5
-2 -5 12 0 14 2 19 5 13 2 -7 2 -19 0 -25z m23 -142 c0 -3 -4 -8 -10 -11 -5
-3 -10 -1 -10 4 0 6 5 11 10 11 6 0 10 -2 10 -4z m197 -148 c-3 -8 -6 -5 -6 6
-1 11 2 17 5 13 3 -3 4 -12 1 -19z m507 -245 c-5 -5 -12 -12 -16 -18 -4 -6 -8
-2 -8 8 0 9 7 17 17 17 9 0 12 -3 7 -7z m-225 -179 c10 -9 -35 -3 -49 6 -11 8
-7 9 15 4 17 -4 32 -8 34 -10z"/>
<path d="M2639 7235 c-3 -3 -89 -7 -190 -10 -208 -6 -214 -8 -212 -78 0 -23 2
-109 3 -192 1 -174 9 -210 48 -220 15 -4 118 -6 228 -6 191 1 202 0 207 -18 2
-10 2 -23 -2 -29 -6 -9 -5 -519 2 -1545 2 -341 3 -370 20 -382 14 -10 63 -12
214 -9 184 4 198 5 219 25 l23 21 1 367 c1 201 2 380 2 396 0 17 -1 283 -2
593 -1 310 0 566 3 568 5 5 153 12 306 14 66 1 101 6 117 17 l24 15 0 229 c0
181 -3 231 -13 235 -15 5 -480 9 -773 5 -105 -1 -197 1 -205 4 -8 3 -17 3 -20
0z m631 -205 c0 -5 -4 -10 -10 -10 -5 0 -10 5 -10 10 0 6 5 10 10 10 6 0 10
-4 10 -10z m30 -4 c0 -3 -4 -8 -10 -11 -5 -3 -10 -1 -10 4 0 6 5 11 10 11 6 0
10 -2 10 -4z m135 -246 c3 -5 1 -10 -4 -10 -6 0 -11 5 -11 10 0 6 2 10 4 10 3
0 8 -4 11 -10z m-341 -15 c-4 -8 -10 -12 -15 -9 -14 8 -10 24 6 24 9 0 12 -6
9 -15z m-104 -385 c0 -5 -2 -10 -4 -10 -3 0 -8 5 -11 10 -3 6 -1 10 4 10 6 0
11 -4 11 -10z m125 -260 c3 -6 -1 -7 -9 -4 -18 7 -21 14 -7 14 6 0 13 -4 16
-10z m-228 -262 c-3 -8 -6 -5 -6 6 -1 11 2 17 5 13 3 -3 4 -12 1 -19z"/>
<path d="M4509 7235 c-2 -2 -159 -6 -348 -9 -189 -3 -345 -7 -347 -9 -7 -6 -6
-2445 0 -2456 7 -11 159 -15 481 -12 110 1 223 1 250 0 28 0 102 -1 165 0 63
0 162 1 220 2 58 0 117 5 132 12 25 11 53 58 42 70 -3 2 -5 76 -5 163 0 115
-4 164 -13 177 -13 16 -42 17 -397 18 -211 0 -390 3 -397 8 -11 6 -19 100 -12
146 1 9 -1 207 -4 315 -1 25 1 57 4 73 l5 27 285 3 c157 2 293 6 302 11 24 11
28 42 25 238 -1 120 -6 181 -14 189 -8 8 -96 13 -298 15 -158 2 -291 6 -296 9
-5 4 -9 115 -9 260 l0 253 38 6 c20 3 199 5 397 5 341 -1 360 0 375 18 13 16
14 50 10 230 -3 116 -8 214 -11 218 -4 3 -123 8 -265 11 -143 2 -271 6 -285 9
-15 2 -28 2 -30 0z m-454 -165 c-3 -5 -14 -10 -23 -10 -15 0 -15 2 -2 10 20
13 33 13 25 0z m175 -210 c0 -5 -4 -10 -10 -10 -5 0 -10 5 -10 10 0 6 5 10 10
10 6 0 10 -4 10 -10z m-20 -27 c0 -5 -5 -15 -10 -23 -8 -12 -10 -11 -10 8 0
12 5 22 10 22 6 0 10 -3 10 -7z m-190 -218 c0 -8 -4 -15 -10 -15 -5 0 -10 7
-10 15 0 8 5 15 10 15 6 0 10 -7 10 -15z m490 -805 c0 -5 -5 -10 -11 -10 -5 0
-7 5 -4 10 3 6 8 10 11 10 2 0 4 -4 4 -10z m-493 -112 c-3 -8 -6 -5 -6 6 -1
11 2 17 5 13 3 -3 4 -12 1 -19z m0 -155 c-3 -10 -5 -2 -5 17 0 19 2 27 5 18 2
-10 2 -26 0 -35z m863 -443 c0 -5 -2 -10 -4 -10 -3 0 -8 5 -11 10 -3 6 -1 10
4 10 6 0 11 -4 11 -10z m-846 -75 c-4 -8 -11 -15 -16 -15 -6 0 -5 6 2 15 7 8
14 15 16 15 2 0 1 -7 -2 -15z m769 -82 c-7 -2 -19 -2 -25 0 -7 3 -2 5 12 5 14
0 19 -2 13 -5z"/>
<path d="M6833 7218 c-18 -4 -34 -12 -37 -17 -3 -4 -8 -199 -10 -432 -6 -433
-6 -540 -7 -1064 0 -165 -2 -439 -5 -609 -5 -385 -19 -355 164 -350 163 3 250
13 259 27 8 13 6 1004 -2 1018 -7 11 355 11 373 0 11 -6 13 -106 14 -509 0
-420 3 -503 14 -513 20 -16 339 -23 377 -8 15 6 27 14 27 18 0 3 3 528 5 1166
3 638 5 1179 6 1203 2 76 -5 79 -202 76 -192 -3 -211 -10 -208 -68 2 -46 -12
-803 -16 -860 l-3 -50 -183 3 c-101 1 -186 4 -190 7 -4 2 -6 215 -4 473 3 412
2 471 -12 482 -18 15 -310 21 -360 7z m977 -828 c0 -5 -5 -10 -11 -10 -5 0 -7
5 -4 10 3 6 8 10 11 10 2 0 4 -4 4 -10z m-745 -69 c3 -5 1 -12 -4 -15 -5 -3
-11 1 -15 9 -6 16 9 21 19 6z m640 -681 c3 -5 1 -10 -4 -10 -6 0 -11 5 -11 10
0 6 2 10 4 10 3 0 8 -4 11 -10z m-652 -115 c-3 -9 -8 -14 -10 -11 -3 3 -2 9 2
15 9 16 15 13 8 -4z m57 -229 c0 -3 -4 -8 -10 -11 -5 -3 -10 -1 -10 4 0 6 5
11 10 11 6 0 10 -2 10 -4z m-160 -336 c0 -5 -4 -10 -10 -10 -5 0 -10 5 -10 10
0 6 5 10 10 10 6 0 10 -4 10 -10z m790 -30 c0 -5 -5 -10 -11 -10 -5 0 -7 5 -4
10 3 6 8 10 11 10 2 0 4 -4 4 -10z m-15 -30 c3 -5 1 -10 -4 -10 -6 0 -11 5
-11 10 0 6 2 10 4 10 3 0 8 -4 11 -10z"/>
<path d="M1530 10769 c0 -18 3 -29 7 -25 10 10 11 46 1 52 -4 3 -8 -9 -8 -27z"/>
<path d="M8715 11650 c-3 -5 -1 -10 4 -10 6 0 11 5 11 10 0 6 -2 10 -4 10 -3
0 -8 -4 -11 -10z"/>
</g>
</svg>
